<svg xmlns="http://www.w3.org/2000/svg" viewBox="0 0 1024 1024" width="1024" height="1024">
  <defs>
    <linearGradient id="bg" x1="0" y1="0" x2="1" y2="1">
      <stop offset="0%" stop-color="#E8F5EE"/>
      <stop offset="100%" stop-color="#C8E6D6"/>
    </linearGradient>
  </defs>
  <rect width="1024" height="1024" rx="180" ry="180" fill="url(#bg)"/>
  <g transform="translate(128, 134) scale(0.75)">
    <path d="M463.735467 975.735467l-161.518934-161.518934A17.066667 17.066667 0 0 1 314.2656 785.066667h395.4688a17.066667 17.066667 0 0 1 12.0832 29.149866l-161.553067 161.518934a68.266667 68.266667 0 0 1-96.529066 0z" fill="#36AD6A"/>
    <path d="M512 34.133333c-129.706667 0-238.250667 90.4192-266.1376 211.626667-3.652267 15.9744-16.7936 28.330667-32.8704 31.470933A221.866667 221.866667 0 0 0 256 716.8H375.466667a34.133333 34.133333 0 0 0 34.133333-34.133333v-204.8a68.266667 68.266667 0 0 1 68.266667-68.266667h68.266666a68.266667 68.266667 0 0 1 68.266667 68.266667v204.8a34.133333 34.133333 0 0 0 34.133333 34.133333h119.466667a221.866667 221.866667 0 0 0 43.008-439.569067 42.052267 42.052267 0 0 1-32.8704-31.470933A273.169067 273.169067 0 0 0 512 34.133333z" fill="#18A058"/>
  </g>
</svg>
